# xmcd CD database file
#
# Track frame offsets:
#	150
#	24027
#	43770
#	65890
#
# Disc length: 1240 seconds
#
# Revision: 0
# Processed by: cddbd v1.5.1PL0 Copyright (c) Steve Scherf et al.
# Submitted via: CDex 1.51
#
DISCID=2e04d604
DTITLE=レピッシュ - ANIMAL BEAT
DYEAR=1986
DGENRE=Ska
TTITLE0=HARD LIFE
TTITLE1=めがねの日本
TTITLE2=シュワキマセリ
TTITLE3=ANIMAL BEAT
EXTD=YEAR: 1986
EXTT0=
EXTT1=
EXTT2=
EXTT3=
PLAYORDER=
